REM MD5 f29b322641cceb3f2faed2a6cb724269
FILE "Andretti Racing (USA).bin" BINARY
  TRACK 01 MODE2/2352
    INDEX 01 00:00:00
  TRACK 02 AUDIO
    INDEX 00 54:16:07
    INDEX 01 54:18:07
  TRACK 03 AUDIO
    INDEX 00 56:29:13
    INDEX 01 56:31:13
  TRACK 04 AUDIO
    INDEX 00 58:59:37
    INDEX 01 59:01:37
  TRACK 05 AUDIO
    INDEX 00 61:37:09
    INDEX 01 61:39:09
  TRACK 06 AUDIO
    INDEX 00 64:01:49
    INDEX 01 64:03:49
REM LEADOUT 66:57:61
